<svg width="400" height="400" version="1.1" xmlns="http://www.w3.org/2000/svg" desc="Created with imagetracer.js version 1.2.6" ><path fill="rgb(0,0,0)" stroke="rgb(0,0,0)" stroke-width="1" opacity="0" d="M 0 0 L 500 0 L 500 500 L 0 500 L 0 0 Z M 252 112 L 251 113 L 242 113 L 226 116 Q 207 121 193 131 L 180 146 L 181 149 L 153 150 L 145 157 L 115 189 L 115 208 L 116 209 L 116 218 L 115 219 Q 113 225 116 227 L 115 244 L 114 245 L 114 252 L 116 259 L 115 261 L 116 263 Q 117 267 115 269 L 116 271 L 115 309 L 114 310 L 115 320 L 115 322 Q 116 325 113 324 L 115 329 L 146 359 L 152 363 L 160 365 L 172 365 L 174 366 L 180 373 Q 182 372 181 375 L 191 382 L 217 394 L 236 399 L 249 400 L 250 401 L 259 401 L 260 400 L 273 399 L 303 390 L 318 382 L 341 365 L 351 365 L 360 362 L 374 349 L 377 347 L 394 330 L 396 326 L 396 189 L 359 149 L 329 149 L 328 150 Q 325 151 326 149 L 326 147 L 324 138 L 321 134 Q 306 122 286 116 L 270 113 L 252 112 Z " /><path fill="rgb(0,0,0)" stroke="rgb(0,0,0)" stroke-width="1" opacity="0" d="M 254.5 159 L 269.5 161 L 279.5 165 L 284 168.5 Q 277.8 180.3 267.5 188 L 256.5 198 L 254 198 L 249.5 192 L 225 169.5 L 226 167 L 240.5 161 L 253.5 160 L 254.5 159 Z " /><path fill="rgb(0,0,0)" stroke="rgb(0,0,0)" stroke-width="1" opacity="0" d="M 254 295 L 258 297.5 L 261.5 302 L 265 304.5 Q 264.3 306.8 266.5 306 L 281 319.5 L 285 325.5 L 276.5 331 L 258.5 335 L 257.5 334 L 245.5 334 L 236.5 332 L 225 325.5 L 234.5 314 L 254 296.5 L 254 295 Z " /><path fill="rgb(199,26,34)" stroke="rgb(199,26,34)" stroke-width="1" opacity="0.996078431372549" d="M 252.5 112 L 260 112.5 L 252.5 113 L 252.5 112 Z " /><path fill="rgb(199,26,34)" stroke="rgb(199,26,34)" stroke-width="1" opacity="0.996078431372549" d="M 315.5 139 L 314.5 141 L 315.5 139 Z " /><path fill="rgb(199,26,34)" stroke="rgb(199,26,34)" stroke-width="1" opacity="0.996078431372549" d="M 164.5 149 L 173 149.5 L 164.5 150 L 164.5 149 Z " /><path fill="rgb(199,26,34)" stroke="rgb(199,26,34)" stroke-width="1" opacity="0.996078431372549" d="M 304.5 150 L 303.5 152 L 304.5 150 Z " /><path fill="rgb(199,26,34)" stroke="rgb(199,26,34)" stroke-width="1" opacity="0.996078431372549" d="M 192.5 157 L 193.5 159 L 192.5 157 Z " /><path fill="rgb(199,26,34)" stroke="rgb(199,26,34)" stroke-width="1" opacity="0.996078431372549" d="M 197.5 163 L 206.5 173 L 197.5 163 Z " /><path fill="rgb(199,26,34)" stroke="rgb(199,26,34)" stroke-width="1" opacity="0.996078431372549" d="M 161.5 170 Q 170.4 168.6 175.5 171 Q 187.9 176.1 196 185.5 L 200.5 191 L 203 192.5 Q 202.3 194.8 204.5 194 L 219 206.5 L 228.5 217 L 230.5 216 L 230.5 218 L 239 213.5 L 238 211.5 L 240 211.5 Q 239.3 209.3 241.5 210 L 241 208.5 L 238.5 204 L 237 204.5 L 237 202.5 L 233 198.5 L 240 204.5 L 241.5 207 L 243 207.5 L 243 209.5 L 219.5 234 Q 215.5 234.5 215 231.5 L 214 228.5 L 216 228.5 L 214.5 226 L 212.5 229 L 212 227.5 L 214 224.5 L 209.5 226 L 206 223.5 L 204.5 221 L 197 215.5 L 196 213.5 L 198 213 L 195.5 209 L 194 209.5 L 195.5 212 L 188 205.5 L 186.5 203 L 180 197.5 Q 182 199.2 184 195.5 L 183.5 194 Q 182.2 196.2 181 193.5 L 183 193.5 L 181.5 191 Q 179.3 191.8 180 189.5 L 175.5 184 L 174 184.5 L 175 181 L 170.5 181 L 165.5 178 Q 160.8 179.3 159.5 177 L 157.5 177 L 154.5 175 L 155.5 173 L 161.5 170 Z M 185 196 L 182 199 L 186 201 L 190 205 L 189 203 Q 190 199 187 200 L 185 196 Z " /><path fill="rgb(199,26,34)" stroke="rgb(199,26,34)" stroke-width="1" opacity="0.996078431372549" d="M 125.5 178 L 126.5 180 L 125 180.5 Q 128.5 182 126 183.5 Q 125.3 185.8 127.5 185 L 134 190 Q 136.3 193.6 135 202.5 L 134 203.5 L 134 236 L 131.5 237 L 118.5 237 L 115 234.5 Q 117.8 232.8 116 226.5 Q 113.3 224.7 115 218.5 L 116 217.5 L 116 208.5 L 115 207.5 L 115 188 L 116.5 188 L 125 179.5 L 125.5 178 Z " /><path fill="rgb(199,26,34)" stroke="rgb(199,26,34)" stroke-width="1" opacity="0.996078431372549" d="M 153 186 L 159 187.5 L 157.5 188 L 155.5 188 Q 151.8 189 153 186 Z " /><path fill="rgb(199,26,34)" stroke="rgb(199,26,34)" stroke-width="1" opacity="0.996078431372549" d="M 352.5 187 L 355 187.5 L 352.5 188 L 352.5 187 Z " /><path fill="rgb(199,26,34)" stroke="rgb(199,26,34)" stroke-width="1" opacity="0.996078431372549" d="M 163.5 188 L 168 188.5 L 163.5 189 L 163.5 188 Z " /><path fill="rgb(199,26,34)" stroke="rgb(199,26,34)" stroke-width="1" opacity="0.996078431372549" d="M 174.5 191 L 177.5 195 L 174.5 191 Z " /><path fill="rgb(199,26,34)" stroke="rgb(199,26,34)" stroke-width="1" opacity="0.996078431372549" d="M 229.5 196 L 232 197.5 L 230.5 197 L 229.5 196 Z " /><path fill="rgb(199,26,34)" stroke="rgb(199,26,34)" stroke-width="1" opacity="0.996078431372549" d="M 329.5 198 L 327.5 201 L 329.5 198 Z " /><path fill="rgb(199,26,34)" stroke="rgb(199,26,34)" stroke-width="1" opacity="0.996078431372549" d="M 169.5 208 L 176 214.5 Q 173.8 215.8 176.5 217 L 178 216.5 Q 175.8 217.8 178.5 219 L 180 218.5 Q 177.8 219.8 180.5 221 L 182 220.5 Q 179.8 221.8 182.5 223 L 183.5 222 L 189 227.5 L 192.5 232 L 199 237.5 L 200.5 240 L 205 243.5 L 205.5 245 L 207 244.5 L 206 247.5 L 192.5 262 Q 189.2 263.1 190 260.5 L 189 259.5 L 189 234.5 L 187.5 233 L 182 229.5 L 171 213.5 L 172.5 214 L 174 213.5 L 169 210.5 L 169.5 208 Z " /><path fill="rgb(199,26,34)" stroke="rgb(199,26,34)" stroke-width="1" opacity="0.996078431372549" d="M 340.5 209 Q 343.3 210.2 341 211.5 L 338.5 215 Q 336.3 214.3 337 216.5 Q 339.5 218 336 219.5 L 326.5 231 Q 325.3 228.8 324 231.5 L 323 233.5 L 322.5 265 L 314 257.5 Q 314.8 255.3 312.5 256 L 305 246.5 L 322 229.5 L 322 228 L 325 226.5 L 324 225.5 L 340.5 209 Z " /><path fill="rgb(199,26,34)" stroke="rgb(199,26,34)" stroke-width="1" opacity="0.996078431372549" d="M 343.5 209 L 344 218.5 L 343 218.5 L 343.5 209 Z " /><path fill="rgb(199,26,34)" stroke="rgb(199,26,34)" stroke-width="1" opacity="0.996078431372549" d="M 152.5 216 L 153 233.5 L 152 233.5 L 152.5 216 Z " /><path fill="rgb(199,26,34)" stroke="rgb(199,26,34)" stroke-width="1" opacity="0.996078431372549" d="M 343.5 220 L 344 225.5 L 343 225.5 L 343.5 220 Z " /><path fill="rgb(199,26,34)" stroke="rgb(199,26,34)" stroke-width="1" opacity="0.996078431372549" d="M 364.5 237 L 375 237.5 L 364.5 238 L 364.5 237 Z " /><path fill="rgb(199,26,34)" stroke="rgb(199,26,34)" stroke-width="1" opacity="0.996078431372549" d="M 343.5 240 L 344 282.5 L 343 282.5 L 343.5 240 Z " /><path fill="rgb(199,26,34)" stroke="rgb(199,26,34)" stroke-width="1" opacity="0.996078431372549" d="M 292.5 259 Q 295.5 258.1 294 262.5 L 297.5 262 L 306 270.5 L 304.5 270 Q 302.3 270.8 303 268.5 L 297.5 264 L 287 276.5 L 304 292.5 L 305.5 295 Q 307.8 294.3 307 296.5 L 310 298 Q 308.9 300.7 311.5 300 L 329.5 317 L 343.5 322 L 345.5 321 L 347 321.5 L 348 317 L 356.5 316 L 374 301.5 L 377.5 295 L 382.5 296 L 384.5 296 L 386.5 295 L 392.5 298 L 394 297.5 Q 391.8 298.8 394.5 300 L 395.5 286 L 396 302.5 L 394 307 L 396 307.5 L 390 312 L 390 313.5 L 367.5 336 L 364 338.5 Q 364.8 340.8 362.5 340 L 356.5 344 L 354.5 343 L 353.5 344 L 334.5 344 L 332.5 343 L 330.5 343 L 326.5 343 L 305 321.5 L 303 318.5 L 295 311.5 L 292.5 308 Q 290.3 308.8 291 306.5 L 281 298.5 L 277.5 294 L 272 289.5 L 270 286.5 L 268 282.5 L 275 276.5 Q 274.3 274.3 276.5 275 L 285 264 L 292.5 259 Z " /><path fill="rgb(199,26,34)" stroke="rgb(199,26,34)" stroke-width="1" opacity="0.996078431372549" d="M 116.5 260 L 134 260.5 L 133 261.5 L 133 269.5 L 134 270.5 L 134 287.5 L 134 289.5 Q 133.1 297.9 136 302.5 L 144.5 312 L 148.5 314 L 148.5 312 L 150.5 313 L 150.5 311 L 152.5 312 L 154 311.5 L 153.5 313 L 158 315.5 Q 155.3 317.3 159.5 319 Q 160.8 316.8 162 319.5 L 163.5 322 L 172.5 322 L 182.5 317 L 210.5 293 L 208.5 296 Q 205.9 295.2 207 298.5 L 208 301 L 212 302 Q 209.1 305.2 210 312 L 208 312.5 Q 210.5 314 207 315.5 L 206 321.5 L 197.5 330 Q 195.3 329.3 196 331.5 L 188 338.5 L 185.5 342 L 176.5 344 L 151.5 344 L 130.5 322 L 127.5 320 L 115 306.5 L 115 282.5 L 116 281.5 L 116 270.5 L 115 268.5 Q 117.3 267.3 116 262.5 Q 113.7 261.2 116.5 260 Z " /><path fill="rgb(199,26,34)" stroke="rgb(199,26,34)" stroke-width="1" opacity="0.996078431372549" d="M 152.5 260 L 153 265.5 L 152 265.5 L 152.5 260 Z " /><path fill="rgb(199,26,34)" stroke="rgb(199,26,34)" stroke-width="1" opacity="0.996078431372549" d="M 360.5 260 L 387 260.5 L 360.5 261 L 360.5 260 Z " /><path fill="rgb(199,26,34)" stroke="rgb(199,26,34)" stroke-width="1" opacity="0.996078431372549" d="M 187.5 266 L 181.5 273 L 187.5 266 Z " /><path fill="rgb(199,26,34)" stroke="rgb(199,26,34)" stroke-width="1" opacity="0.996078431372549" d="M 167.5 276 L 168 280.5 L 167 280.5 L 167.5 276 Z " /><path fill="rgb(199,26,34)" stroke="rgb(199,26,34)" stroke-width="1" opacity="0.996078431372549" d="M 177.5 277 L 173.5 282 L 177.5 277 Z " /><path fill="rgb(199,26,34)" stroke="rgb(199,26,34)" stroke-width="1" opacity="0.996078431372549" d="M 320.5 285 L 321.5 287 L 320.5 285 Z " /><path fill="rgb(199,26,34)" stroke="rgb(199,26,34)" stroke-width="1" opacity="0.996078431372549" d="M 188.5 287 L 184.5 292 L 188.5 287 Z " /><path fill="rgb(199,26,34)" stroke="rgb(199,26,34)" stroke-width="1" opacity="0.996078431372549" d="M 182.5 293 L 178.5 298 L 182.5 293 Z " /><path fill="rgb(199,26,34)" stroke="rgb(199,26,34)" stroke-width="1" opacity="0.996078431372549" d="M 335.5 301 L 341 304.5 L 339.5 305 L 335.5 301 Z " /><path fill="rgb(199,26,34)" stroke="rgb(199,26,34)" stroke-width="1" opacity="0.996078431372549" d="M 152.5 302 L 153 306 L 169.5 305 L 169.5 306 L 160.5 306 L 153 309 L 152.5 302 Z " /><path fill="rgb(199,26,34)" stroke="rgb(199,26,34)" stroke-width="1" opacity="0.996078431372549" d="M 224.5 303 L 218.5 310 L 224.5 303 Z " /><path fill="rgb(199,26,34)" stroke="rgb(199,26,34)" stroke-width="1" opacity="0.996078431372549" d="M 343 305 Q 348.2 303.3 347 307 Q 341.8 308.7 343 305 Z " /><path fill="rgb(199,26,34)" stroke="rgb(199,26,34)" stroke-width="1" opacity="0.996078431372549" d="M 348.5 305 L 353 305.5 L 348.5 306 L 348.5 305 Z " /><path fill="rgb(199,26,34)" stroke="rgb(199,26,34)" stroke-width="1" opacity="0.996078431372549" d="M 358.5 305 L 359 307 L 356 306.5 L 358.5 305 Z " /><path fill="rgb(199,26,34)" stroke="rgb(199,26,34)" stroke-width="1" opacity="0.996078431372549" d="M 212.5 315 L 208.5 320 L 212.5 315 Z " /><path fill="rgb(199,26,34)" stroke="rgb(199,26,34)" stroke-width="1" opacity="0.996078431372549" d="M 211.5 337 L 218 340.5 L 216 341 Q 207.9 354.7 196.5 366 L 190 360.5 L 192 356.5 L 211.5 337 Z " /><path fill="rgb(199,26,34)" stroke="rgb(199,26,34)" stroke-width="1" opacity="0.996078431372549" d="M 297.5 338 L 299.5 339 Q 301.2 336.3 303 340.5 L 303 343 Q 305.7 341.9 305 344.5 L 309.5 349 L 311 348.5 Q 308.2 350.2 312.5 352 L 313.5 351 L 321 358.5 L 319 361.5 L 319.5 363 L 318 362.5 Q 318.8 365.1 315.5 364 L 314.5 361 L 312 359.5 Q 312.8 357.3 310.5 358 L 296.5 341 L 294 340.5 L 297.5 338 Z " /><path fill="rgb(199,26,34)" stroke="rgb(199,26,34)" stroke-width="1" opacity="0.996078431372549" d="M 234.5 347 L 237 347.5 L 234.5 348 L 234.5 347 Z " /><path fill="rgb(199,26,34)" stroke="rgb(199,26,34)" stroke-width="1" opacity="0.996078431372549" d="M 269.5 348 L 272 348.5 L 269.5 349 L 269.5 348 Z " /><path fill="rgb(199,26,34)" stroke="rgb(199,26,34)" stroke-width="1" opacity="0.996078431372549" d="M 242.5 349 L 247 349.5 L 242.5 350 L 242.5 349 Z " /><path fill="rgb(199,26,34)" stroke="rgb(199,26,34)" stroke-width="1" opacity="0.996078431372549" d="M 264.5 349 L 267 349.5 L 264.5 350 L 264.5 349 Z " /><path fill="rgb(199,26,34)" stroke="rgb(199,26,34)" stroke-width="1" opacity="0.996078431372549" d="M 251.5 350 L 259 350.5 L 251.5 351 L 251.5 350 Z " /><path fill="rgb(199,26,34)" stroke="rgb(199,26,34)" stroke-width="1" opacity="0.996078431372549" d="M 238.5 381 L 242 381.5 L 238.5 382 L 238.5 381 Z " /><path fill="rgb(199,26,34)" stroke="rgb(199,26,34)" stroke-width="1" opacity="0.996078431372549" d="M 248.5 382 L 251 382.5 L 248.5 383 L 248.5 382 Z " /><path fill="rgb(199,26,34)" stroke="rgb(199,26,34)" stroke-width="1" opacity="0.996078431372549" d="M 261.5 382 L 266 382.5 L 261.5 383 L 261.5 382 Z " /><path fill="rgb(244,134,69)" stroke="rgb(244,134,69)" stroke-width="1" opacity="0.984313725490196" d="M 244.5 113 L 267.5 113 L 268.5 114 L 285.5 116 Q 306 122 321 133.5 Q 321.8 135.8 319.5 135 L 298.5 157 L 293.5 153 L 278.5 146 L 265.5 143 L 245.5 143 L 233.5 146 L 233.5 145 L 246.5 141 L 267.5 141 L 273.5 143 L 278.5 143 L 281.5 145 L 284.5 144 L 286.5 145 L 288 144.5 L 288.5 146 L 291.5 145 L 297.5 147 L 297 145.5 Q 296.2 142.9 299.5 144 L 301 143.5 L 301.5 145 L 305.5 139 L 305 140.5 Q 304.3 142.8 306.5 142 Q 307.8 144.3 309 141.5 L 310.5 139 L 311.5 141 L 312 138 L 308 139.5 L 307.5 141 L 307 139.5 L 308.5 137 L 306.5 138 L 303.5 135 L 302.5 136 Q 300.3 136.8 301 134.5 L 298 128 L 302 127.5 L 299 127 Q 300.1 124.3 297.5 125 L 294.5 123 L 290.5 125 Q 289 122.5 287.5 126 Q 282.2 126.8 280.5 124 L 278.5 125 L 273 124 Q 271.7 120.7 276.5 122 L 278.5 120 L 286 119.5 L 269.5 116 L 266.5 117 L 264.5 116 L 261 117.5 L 269.5 119 L 272.5 118 L 272 119.5 Q 272.8 122.1 269.5 121 L 267.5 122 Q 265 117.5 256.5 119 L 254.5 120 L 249 118.5 L 251 117.5 L 250.5 116 L 253 115.5 L 248.5 115 L 246.5 116 L 242.5 115 L 239.5 116 L 237.5 116 Q 209.5 119.5 192 133.5 L 201.5 144 L 204 145.5 L 206.5 149 Q 208.8 148.3 208 150.5 L 212 153 Q 210.8 156 214.5 155 Q 218.7 149.7 226.5 148 L 226.5 149 Q 218.4 151.4 213.5 157 L 211 157 L 211 155.5 L 191.5 135 Q 188.9 135.7 190 133 L 199.5 127 L 219.5 118 L 229.5 115 L 236.5 115 L 244.5 113 Z M 303 127 L 303 130 L 308 136 L 310 135 L 311 133 L 308 131 L 306 129 L 303 127 Z M 313 132 L 314 133 L 312 137 L 314 139 L 315 136 L 315 134 Q 316 131 313 132 Z M 302 146 L 302 147 L 304 147 L 302 146 Z " /><path fill="rgb(244,134,69)" stroke="rgb(244,134,69)" stroke-width="1" opacity="0.984313725490196" d="M 257.5 122 L 262 123.5 L 256.5 124 L 257.5 122 Z " /><path fill="rgb(244,134,69)" stroke="rgb(244,134,69)" stroke-width="1" opacity="0.984313725490196" d="M 292 126 Q 295 125 294 128 Q 291 129 292 126 Z " /><path fill="rgb(244,134,69)" stroke="rgb(244,134,69)" stroke-width="1" opacity="0.984313725490196" d="M 229.5 146 L 232 146.5 L 228.5 148 L 229.5 146 Z " /><path fill="rgb(244,134,69)" stroke="rgb(244,134,69)" stroke-width="1" opacity="0.984313725490196" d="M 176.5 149 Q 185.8 147.7 188 153.5 L 187.5 155 L 185 154 L 183.5 151 L 176.5 150 L 176.5 149 Z " /><path fill="rgb(244,134,69)" stroke="rgb(244,134,69)" stroke-width="1" opacity="0.984313725490196" d="M 328.5 149 L 358.5 149 L 372 162.5 L 396 188.5 L 396 237.5 L 394.5 237 L 361.5 237 L 359 238 L 360 219.5 L 360 215.5 L 359 212.5 L 359 189.5 L 360 186.5 L 358.5 187 L 340.5 188 L 337 190.5 L 330.5 198 L 326 201.5 L 290.5 239 L 281 247.5 L 274.5 255 Q 272.3 254.3 273 256.5 L 240 287.5 L 226.5 302 L 225 301.5 L 239 288.5 L 240 285 L 243 283.5 Q 242.3 281.3 244.5 282 L 259 265.5 Q 256.5 264 260 262.5 L 263 255.5 L 260.5 255 L 253.5 256 L 248 254 Q 244.9 249 244.5 240 L 244 242 Q 239.5 240.5 241 245 L 243 245.5 L 241.5 246 L 239.5 245 L 235.5 250 Q 233.3 249.3 234 251.5 L 230 253.5 Q 232.3 254.8 229.5 256 L 227.5 256 L 221 261 L 215.5 269 L 206 276 L 204.5 279 L 202.5 280 L 200 279 Q 201.5 282.7 198.5 282 L 197 281.5 L 196 285 L 192 286 Q 193 289 190 288 L 190 291.5 L 187 293 L 185.5 296 L 183.5 296 L 177 301 L 177 299.5 L 203 273.5 L 203 272 Q 205.7 273.1 205 270.5 L 219 257.5 L 278.5 197 L 281 195.5 L 301.5 174 Q 303.8 174.8 303 172.5 L 325.5 150 L 328.5 149 Z M 342 170 L 329 176 L 321 182 L 310 193 L 310 194 L 302 200 L 271 230 L 268 230 L 269 228 L 268 226 L 257 229 L 258 234 L 256 233 L 254 234 L 255 236 L 257 235 L 261 237 Q 265 239 262 241 L 266 247 L 264 252 L 263 254 Q 266 255 265 253 L 273 248 Q 272 244 276 246 L 276 244 L 280 242 L 282 242 L 288 231 L 293 227 L 296 222 L 300 220 L 305 215 L 305 212 L 307 212 Q 309 213 308 211 L 314 206 L 319 200 L 320 195 Q 323 194 322 197 L 324 196 L 323 193 L 324 193 Q 323 195 326 194 Q 329 192 325 191 L 326 188 L 333 185 L 333 183 Q 337 184 335 180 L 349 181 L 350 182 L 355 181 L 359 182 L 361 182 L 361 184 L 359 185 L 361 187 L 361 232 L 362 234 L 364 235 L 379 235 L 378 232 L 379 228 L 381 228 L 382 226 L 382 228 L 384 227 L 384 230 L 390 227 L 392 227 L 393 224 L 388 226 L 386 225 L 384 222 L 382 225 L 378 224 L 378 199 Q 374 184 363 177 L 361 178 L 361 177 Q 357 172 349 172 L 347 170 L 342 170 Z M 387 223 L 387 224 L 389 224 L 387 223 Z M 253 239 L 247 246 L 249 252 L 254 255 L 259 254 Q 265 252 263 243 Q 261 237 253 239 Z " /><path fill="rgb(244,134,69)" stroke="rgb(244,134,69)" stroke-width="1" opacity="0.984313725490196" d="M 152.5 150 L 160 150.5 L 152.5 151 L 136 167.5 L 129.5 175 L 134 169.5 L 143.5 158 L 152.5 150 Z " /><path fill="rgb(244,134,69)" stroke="rgb(244,134,69)" stroke-width="1" opacity="0.984313725490196" d="M 164.5 150 L 168 150.5 L 164.5 151 L 164.5 150 Z " /><path fill="rgb(244,134,69)" stroke="rgb(244,134,69)" stroke-width="1" opacity="0.984313725490196" d="M 189.5 156 L 197 162.5 L 204 170.5 L 194 161.5 L 194 160 L 192 160 Q 193.1 157.3 190.5 158 L 189.5 156 Z " /><path fill="rgb(244,134,69)" stroke="rgb(244,134,69)" stroke-width="1" opacity="0.984313725490196" d="M 212.5 178 L 214.5 181 L 212.5 178 Z " /><path fill="rgb(244,134,69)" stroke="rgb(244,134,69)" stroke-width="1" opacity="0.984313725490196" d="M 344 178 Q 347 177 346 180 Q 343 181 344 178 Z " /><path fill="rgb(244,134,69)" stroke="rgb(244,134,69)" stroke-width="1" opacity="0.984313725490196" d="M 178.5 195 L 179.5 197 L 178.5 195 Z " /><path fill="rgb(244,134,69)" stroke="rgb(244,134,69)" stroke-width="1" opacity="0.984313725490196" d="M 168.5 207 L 170 212.5 L 169 213.5 L 168.5 259 L 168.5 207 Z " /><path fill="rgb(244,134,69)" stroke="rgb(244,134,69)" stroke-width="1" opacity="0.984313725490196" d="M 342.5 210 L 343 284.5 L 344 286.5 L 323 266.5 L 323 234.5 L 325.5 232 L 329 229.5 Q 328.3 227.3 330.5 228 L 340 216.5 L 342.5 210 Z M 325 237 L 325 239 L 327 240 L 325 251 Q 324 258 327 262 L 326 261 L 325 265 L 328 263 L 326 266 L 329 267 Q 334 266 332 270 L 330 271 L 334 276 L 337 277 L 338 280 L 342 282 L 342 275 L 341 274 L 342 272 Q 339 268 341 260 L 340 259 L 341 256 L 337 246 L 335 244 L 333 242 L 332 242 L 332 241 L 325 237 Z " /><path fill="rgb(244,134,69)" stroke="rgb(244,134,69)" stroke-width="1" opacity="0.984313725490196" d="M 173.5 213 L 175.5 216 L 173.5 213 Z " /><path fill="rgb(244,134,69)" stroke="rgb(244,134,69)" stroke-width="1" opacity="0.984313725490196" d="M 171.5 216 L 173 219 Q 175.7 217.9 175 220.5 L 175.5 222 L 174 221.5 L 173.5 223 Q 169.3 221.2 172 219.5 L 171.5 218 L 170 218.5 L 171.5 216 Z " /><path fill="rgb(244,134,69)" stroke="rgb(244,134,69)" stroke-width="1" opacity="0.984313725490196" d="M 181.5 221 L 182.5 223 L 181.5 221 Z " /><path fill="rgb(244,134,69)" stroke="rgb(244,134,69)" stroke-width="1" opacity="0.984313725490196" d="M 210.5 227 L 211.5 229 L 210.5 227 Z " /><path fill="rgb(244,134,69)" stroke="rgb(244,134,69)" stroke-width="1" opacity="0.984313725490196" d="M 134.5 235 L 135.5 236 L 149.5 236 L 153 235 L 152.5 237 L 134 237 L 134.5 235 Z " /><path fill="rgb(244,134,69)" stroke="rgb(244,134,69)" stroke-width="1" opacity="0.984313725490196" d="M 187.5 235 L 189 235 L 189 240 L 186 239.5 L 188 236.5 L 187.5 235 Z " /><path fill="rgb(244,134,69)" stroke="rgb(244,134,69)" stroke-width="1" opacity="0.984313725490196" d="M 140.5 260 L 152 260 L 152 278.5 L 153 279.5 L 153 287.5 L 152 287.5 L 151 261 L 140.5 261 L 140.5 260 Z " /><path fill="rgb(244,134,69)" stroke="rgb(244,134,69)" stroke-width="1" opacity="0.984313725490196" d="M 360.5 261 L 396 261 L 396 280 L 394 279.5 L 394 263.5 L 391.5 263 L 390.5 262 L 361 262 L 360.5 280 L 359 271.5 L 359 262.5 L 360.5 261 Z " /><path fill="rgb(244,134,69)" stroke="rgb(244,134,69)" stroke-width="1" opacity="0.984313725490196" d="M 189.5 263 L 188.5 265 L 189.5 263 Z " /><path fill="rgb(244,134,69)" stroke="rgb(244,134,69)" stroke-width="1" opacity="0.984313725490196" d="M 179.5 274 L 178.5 276 L 179.5 274 Z " /><path fill="rgb(244,134,69)" stroke="rgb(244,134,69)" stroke-width="1" opacity="0.984313725490196" d="M 172.5 281 L 168.5 286 L 168 284 L 172.5 281 Z " /><path fill="rgb(244,134,69)" stroke="rgb(244,134,69)" stroke-width="1" opacity="0.984313725490196" d="M 359.5 284 L 360 305.5 L 359 305.5 L 359.5 284 Z " /><path fill="rgb(244,134,69)" stroke="rgb(244,134,69)" stroke-width="1" opacity="0.984313725490196" d="M 321.5 287 L 323.5 290 L 321.5 287 Z " /><path fill="rgb(244,134,69)" stroke="rgb(244,134,69)" stroke-width="1" opacity="0.984313725490196" d="M 152.5 291 L 153 296.5 L 152 296.5 L 152.5 291 Z " /><path fill="rgb(244,134,69)" stroke="rgb(244,134,69)" stroke-width="1" opacity="0.984313725490196" d="M 328.5 294 L 330.5 297 L 328.5 294 Z " /><path fill="rgb(244,134,69)" stroke="rgb(244,134,69)" stroke-width="1" opacity="0.984313725490196" d="M 221.5 305 L 218.5 309 L 221.5 305 Z " /><path fill="rgb(244,134,69)" stroke="rgb(244,134,69)" stroke-width="1" opacity="0.984313725490196" d="M 217.5 341 L 221 342.5 L 219.5 343 L 217.5 342 L 216 342.5 L 217.5 341 Z " /><path fill="rgb(244,134,69)" stroke="rgb(244,134,69)" stroke-width="1" opacity="0.984313725490196" d="M 284.5 344 L 286 344.5 L 282.5 346 L 282.5 345 L 284.5 344 Z " /><path fill="rgb(244,134,69)" stroke="rgb(244,134,69)" stroke-width="1" opacity="0.984313725490196" d="M 313.5 363 L 316 364.5 L 305.5 370 L 305.5 369 L 314 364.5 L 313.5 363 Z " /><path fill="rgb(244,134,69)" stroke="rgb(244,134,69)" stroke-width="1" opacity="0.984313725490196" d="M 301.5 371 L 300.5 373 L 291.5 376 L 291.5 375 L 301.5 371 Z " /><path fill="rgb(244,134,69)" stroke="rgb(244,134,69)" stroke-width="1" opacity="0.984313725490196" d="M 218.5 375 L 222 376.5 L 220.5 377 L 218.5 375 Z " /><path fill="rgb(244,134,69)" stroke="rgb(244,134,69)" stroke-width="1" opacity="0.984313725490196" d="M 236.5 380 L 239 380.5 L 236.5 381 L 236.5 380 Z " /><path fill="rgb(244,134,69)" stroke="rgb(244,134,69)" stroke-width="1" opacity="0.984313725490196" d="M 273.5 380 L 276 380.5 L 273.5 381 L 273.5 380 Z " /><path fill="rgb(244,134,69)" stroke="rgb(244,134,69)" stroke-width="1" opacity="0.984313725490196" d="M 267.5 381 L 270 381.5 L 267.5 382 L 267.5 381 Z " /><path fill="rgb(244,134,69)" stroke="rgb(244,134,69)" stroke-width="1" opacity="0.984313725490196" d="M 253.5 382 L 259 382.5 L 253.5 383 L 253.5 382 Z " /><path fill="rgb(248,77,39)" stroke="rgb(248,77,39)" stroke-width="1" opacity="0.996078431372549" d="M 238.5 115 L 241.5 116 L 245.5 115 L 247.5 116 L 252.5 115 L 252.5 116 L 250 116.5 L 250.5 118 L 249 118.5 L 253.5 119 L 255.5 118 Q 257.3 120.7 263.5 119 L 268.5 122 L 272 121 L 273 118.5 L 270.5 118 L 266.5 119 L 261 117.5 L 265.5 116 L 268.5 117 L 271.5 116 L 286 119.5 L 278.5 120 Q 277.3 123 273 122 Q 271.6 125.7 277.5 124 L 279.5 125 L 281.5 124 Q 282.5 127 287.5 126 Q 289 122.5 290.5 125 L 295.5 123 L 298 123.5 L 297.5 125 L 299.5 124 L 302 125.5 L 300.5 126 L 299 125.5 Q 298.2 128.1 301.5 127 L 301.5 128 Q 297.1 126.5 298 129.5 L 301 136 L 303.5 135 Q 305.3 138.8 307 135.5 L 303 129.5 L 303 127 L 306 128.5 L 307.5 131 L 311 132.5 L 309.5 135 L 307 136.5 L 312 138 L 313 135.5 L 312.5 134 L 314 134.5 Q 314.8 132.3 312.5 133 L 312.5 132 Q 315.8 130.9 315 133.5 L 315 135.5 L 313.5 139 L 312 138.5 L 310.5 142 L 311 140.5 L 310.5 139 L 306.5 144 L 306.5 142 L 304.5 143 L 305 141.5 L 304.5 140 L 301.5 145 L 300.5 143 L 297 144 L 299.5 148 L 301 148.5 L 299.5 149 L 297.5 147 L 289.5 145 L 287 146.5 L 288 144.5 L 285 145.5 L 285.5 144 L 283.5 145 L 280.5 144 L 267.5 141 L 246.5 141 L 236 144.5 L 236.5 146 L 233 145 L 232.5 147 L 229.5 146 L 229.5 148 L 227.5 148 L 225 148.5 L 225.5 150 L 223.5 149 L 223.5 151 L 221.5 150 L 221.5 152 L 219.5 151 L 214.5 155 L 212 155 Q 213.1 152.3 210.5 153 L 208 149 L 204 146.5 L 202.5 144 L 196.5 139 L 195.5 140 L 191 135.5 L 192 133.5 L 191.5 132 L 193.5 132 L 195 131.5 L 194.5 130 L 196.5 130 L 198 129.5 L 197.5 128 L 199.5 128 L 205 125.5 L 204.5 124 L 206.5 125 L 210 123.5 L 209.5 122 L 211.5 123 L 211.5 121 L 214.5 122 L 223.5 118 L 234.5 117 L 238.5 115 Z M 258 122 L 257 124 L 262 124 L 258 122 Z M 292 126 Q 291 129 294 128 Q 295 125 292 126 Z " /><path fill="rgb(248,77,39)" stroke="rgb(248,77,39)" stroke-width="1" opacity="0.996078431372549" d="M 245.5 143 L 248 143.5 L 245.5 144 L 245.5 143 Z " /><path fill="rgb(248,77,39)" stroke="rgb(248,77,39)" stroke-width="1" opacity="0.996078431372549" d="M 301.5 146 L 304 146.5 L 301.5 147 L 301.5 146 Z " /><path fill="rgb(248,77,39)" stroke="rgb(248,77,39)" stroke-width="1" opacity="0.996078431372549" d="M 173.5 149 L 180.5 150 L 185 152.5 Q 184.3 154.8 186.5 154 L 188.5 154 L 191 156.5 L 190.5 158 L 192 158 L 192 160 Q 194.7 158.9 194 161.5 L 209 174.5 Q 208.3 176.8 210.5 176 L 214.5 181 L 217 182.5 Q 216.3 184.8 218.5 184 L 223 190 L 230 195.5 L 229.5 197 L 237 202.5 L 237.5 205 L 239 204.5 L 241.5 209 L 243 208.5 L 240 210 L 239.5 212 L 238 211.5 L 239 213.5 L 230.5 218 L 219 207.5 L 217.5 205 L 203 194 L 201.5 191 L 196 186.5 L 193.5 183 Q 186.2 175.3 175.5 171 Q 170.4 168.6 161.5 170 L 154 174.5 L 156 175 Q 154.9 177.7 157.5 177 L 160.5 178 L 165.5 178 Q 168.5 181.9 175 181 L 174 184.5 L 177 183.5 Q 174.5 185 178 186.5 L 180 191 L 183 192.5 L 187 200 Q 190 198.8 189 202.5 L 192 207.5 L 191 207.5 L 188.5 204 Q 187.3 206.3 186 203.5 Q 188.3 202.3 185.5 201 L 169.5 188 L 167.5 188 Q 160.7 189.3 157.5 187 L 156 187.5 L 156.5 186 L 153 186.5 L 153 215.5 L 152 216.5 L 152 233.5 L 152.5 235 Q 146.3 237.7 135.5 236 L 134 234.5 L 134 203.5 L 135 202.5 L 135 192.5 L 134 190 L 126 185 L 123.5 181 L 122.5 184 L 121.5 183 L 116 187.5 L 124.5 179 L 125.5 180 L 127 179.5 L 126 177.5 L 136 168.5 L 145 158.5 L 144.5 157 L 145.5 158 L 152.5 151 L 163.5 150 L 167.5 151 L 173.5 149 Z " /><path fill="rgb(248,77,39)" stroke="rgb(248,77,39)" stroke-width="1" opacity="0.996078431372549" d="M 341.5 170 L 346.5 170 L 348.5 172 L 352.5 172 L 359.5 175 L 373 187.5 L 378 198.5 L 378 224 L 381.5 223 L 383 223.5 L 383.5 222 L 385.5 225 L 387.5 226 L 393 224 L 391.5 227 L 389.5 227 L 384 230 L 383.5 227 L 382 227.5 L 381.5 226 L 380.5 228 L 379 227.5 L 378 231.5 L 379 235 L 363.5 235 L 362 233.5 L 361 231.5 L 360.5 186 L 359 186.5 L 359.5 184 Q 361.8 184.8 361 182.5 L 358.5 182 L 354.5 181 L 349.5 182 L 348.5 181 L 335 180 Q 336.7 184.1 332.5 183 L 332.5 185 L 326 188 L 325 190.5 Q 328.8 192.3 325.5 194 Q 323.3 193.3 324 195.5 L 322 196.5 Q 322.7 193.9 320 195 L 319 199.5 L 314 206 L 308 210.5 Q 308.8 212.8 306.5 212 L 305 211.5 L 304 215.5 L 305 217.5 L 304 217.5 L 303.5 216 L 296 221.5 L 293 227 L 288 230.5 L 289.5 233 L 291.5 232 L 290.5 234 L 288.5 235 L 287.5 232 L 280.5 243 L 277.5 242 L 276 246 Q 272.3 244.5 273 247.5 Q 270.7 248.8 273.5 250 L 275 250.5 L 273.5 251 Q 272 247.5 270.5 250 Q 265.8 249.3 265 252.5 Q 265.8 255.1 262.5 254 L 263 255.5 L 263 257.5 L 258 264.5 L 259 265.5 L 255 269.5 L 244.5 282 Q 242.3 281.3 243 283.5 L 240 285 L 240.5 287 L 242 286.5 L 239 287.5 L 228.5 299 L 225 301.5 L 225.5 303 L 218 308.5 L 218 310.5 L 213.5 315 L 210 316 L 206.5 321 L 206 317.5 L 209 313.5 L 208.5 312 Q 211.3 312.6 210 306.5 L 212 302 L 208 301 L 206.5 296 L 182.5 317 L 172.5 322 L 163.5 322 L 160.5 318 Q 158.8 320.7 157 316.5 Q 159.3 315.3 156.5 314 L 150.5 311 L 150.5 313 L 147.5 314 L 143 310.5 L 136 302.5 L 133 288.5 L 134 287.5 L 134 270.5 L 133 269.5 L 133 261.5 Q 134.3 258.8 139.5 260 L 140.5 261 L 151 261 L 151.5 279 L 152.5 266 L 153 278.5 L 152 279.5 L 152 287.5 L 153 290.5 Q 150.7 291.7 152 296.5 L 153 298.5 L 152 300.5 L 152 302.5 L 153 309 L 160.5 306 L 169.5 306 L 176.5 300 L 178.5 301 Q 182.2 299 180.5 297 Q 182 299.5 183.5 296 L 186 295.5 L 185.5 294 L 187 294.5 Q 186.3 292.3 188.5 293 Q 191 291.8 190 288 L 192 288 Q 190.9 285.3 193.5 286 L 196 285 L 197.5 281 L 200 282 Q 198.5 278.2 201.5 279 L 203.5 279 L 205 278.5 L 204.5 277 L 206 277.5 L 205 275.5 L 206.5 276 L 219 265.5 L 221 261 L 231 254.5 L 230.5 253 L 234 251.5 Q 233.3 249.3 235.5 250 L 239.5 245 L 241 245 L 241 242 Q 244.7 243.5 244 240.5 L 245 240.5 L 245 245.5 L 248 254 L 252.5 255 L 254 254.5 L 253.5 256 Q 262.1 257.1 264 251.5 L 266 246.5 L 263.5 242 L 262 242.5 L 263 239.5 L 260.5 237 L 256.5 235 L 254.5 236 L 253.5 234 L 257 231.5 Q 255.8 227.8 259.5 229 L 267.5 226 L 269 227.5 L 267.5 230 L 270.5 230 L 301.5 200 L 310 194 L 310 192.5 L 320.5 182 L 328.5 176 L 341.5 170 Z M 344 178 Q 343 181 346 180 Q 347 177 344 178 Z M 258 232 L 256 234 L 258 234 L 258 232 Z M 210 293 L 208 296 L 211 294 L 210 293 Z " /><path fill="rgb(248,77,39)" stroke="rgb(248,77,39)" stroke-width="1" opacity="0.996078431372549" d="M 348.5 187 L 352 187.5 L 348.5 188 L 348.5 187 Z " /><path fill="rgb(248,77,39)" stroke="rgb(248,77,39)" stroke-width="1" opacity="0.996078431372549" d="M 322.5 200 L 321.5 202 L 322.5 200 Z " /><path fill="rgb(248,77,39)" stroke="rgb(248,77,39)" stroke-width="1" opacity="0.996078431372549" d="M 193.5 208 L 198 211.5 L 199 213.5 L 197.5 213 L 195 212.5 L 196 211.5 L 193.5 208 Z " /><path fill="rgb(248,77,39)" stroke="rgb(248,77,39)" stroke-width="1" opacity="0.996078431372549" d="M 341.5 209 L 343 209.5 L 341 210.5 L 342 212.5 L 336.5 220 L 337 216.5 L 336.5 215 Q 332.8 217 334.5 219 L 333 217.5 L 337.5 213 L 337.5 215 L 341 212.5 L 340.5 211 L 339 211.5 L 341.5 209 Z " /><path fill="rgb(248,77,39)" stroke="rgb(248,77,39)" stroke-width="1" opacity="0.996078431372549" d="M 170.5 210 L 173 213.5 L 173 215.5 L 175 218.5 L 173 219 L 171.5 216 L 170 218.5 L 172 218.5 L 171 220.5 L 174 222.5 L 173 220.5 L 175.5 220 L 177 221.5 L 183.5 231 L 189 234.5 L 187 235.5 L 187 237.5 L 186 239.5 L 189 240 L 189 259.5 L 190 262.5 Q 186.9 264.3 188.5 266 L 181 272.5 Q 181.8 274.8 179.5 274 L 178 277 Q 175.3 275.9 176 278.5 L 168 284 L 168 259.5 L 169 258.5 L 169 213.5 L 170 212.5 Q 167.8 211.3 170.5 210 Z " /><path fill="rgb(248,77,39)" stroke="rgb(248,77,39)" stroke-width="1" opacity="0.996078431372549" d="M 359.5 213 L 360 215.5 L 359 215.5 L 359.5 213 Z " /><path fill="rgb(248,77,39)" stroke="rgb(248,77,39)" stroke-width="1" opacity="0.996078431372549" d="M 198.5 215 L 199.5 217 L 198.5 215 Z " /><path fill="rgb(248,77,39)" stroke="rgb(248,77,39)" stroke-width="1" opacity="0.996078431372549" d="M 178.5 218 L 181 219 L 180.5 221 L 178.5 218 Z " /><path fill="rgb(248,77,39)" stroke="rgb(248,77,39)" stroke-width="1" opacity="0.996078431372549" d="M 202.5 218 L 205.5 219 L 208 220.5 Q 206 225 204 221.5 L 207 220.5 L 204.5 219 Q 202.7 221.5 202.5 218 Z " /><path fill="rgb(248,77,39)" stroke="rgb(248,77,39)" stroke-width="1" opacity="0.996078431372549" d="M 359.5 219 L 360 225.5 L 359 225.5 L 359.5 219 Z " /><path fill="rgb(248,77,39)" stroke="rgb(248,77,39)" stroke-width="1" opacity="0.996078431372549" d="M 329.5 221 L 327.5 224 L 329.5 221 Z " /><path fill="rgb(248,77,39)" stroke="rgb(248,77,39)" stroke-width="1" opacity="0.996078431372549" d="M 335.5 221 L 333.5 224 L 335.5 221 Z " /><path fill="rgb(248,77,39)" stroke="rgb(248,77,39)" stroke-width="1" opacity="0.996078431372549" d="M 207.5 223 L 208.5 225 L 207.5 223 Z " /><path fill="rgb(248,77,39)" stroke="rgb(248,77,39)" stroke-width="1" opacity="0.996078431372549" d="M 386.5 223 L 389 223.5 L 386.5 224 L 386.5 223 Z " /><path fill="rgb(248,77,39)" stroke="rgb(248,77,39)" stroke-width="1" opacity="0.996078431372549" d="M 211.5 224 L 214 224.5 L 216 228.5 L 214.5 231 L 212 229.5 L 213 227.5 L 210.5 227 L 209 226.5 L 211.5 224 Z " /><path fill="rgb(248,77,39)" stroke="rgb(248,77,39)" stroke-width="1" opacity="0.996078431372549" d="M 298.5 224 L 297.5 226 L 298.5 224 Z " /><path fill="rgb(248,77,39)" stroke="rgb(248,77,39)" stroke-width="1" opacity="0.996078431372549" d="M 325.5 225 L 323.5 228 L 325.5 225 Z " /><path fill="rgb(248,77,39)" stroke="rgb(248,77,39)" stroke-width="1" opacity="0.996078431372549" d="M 332.5 225 L 330.5 228 L 332.5 225 Z " /><path fill="rgb(248,77,39)" stroke="rgb(248,77,39)" stroke-width="1" opacity="0.996078431372549" d="M 328.5 229 Q 331.5 230.5 328.5 232 L 326.5 232 L 323.5 234 L 324 232.5 L 323 230.5 L 326.5 231 L 328.5 229 Z " /><path fill="rgb(248,77,39)" stroke="rgb(248,77,39)" stroke-width="1" opacity="0.996078431372549" d="M 215.5 232 L 219 234 L 218.5 236 L 215.5 232 Z " /><path fill="rgb(248,77,39)" stroke="rgb(248,77,39)" stroke-width="1" opacity="0.996078431372549" d="M 115.5 235 L 118 236.5 L 115 237 L 115.5 235 Z " /><path fill="rgb(248,77,39)" stroke="rgb(248,77,39)" stroke-width="1" opacity="0.996078431372549" d="M 325 237 L 333 241.5 L 334.5 244 L 337 245.5 L 341 255.5 L 340 258.5 L 341 259.5 Q 339.3 267.7 342 271.5 L 341 273.5 L 342 274.5 L 342 282 L 338 279.5 L 336.5 277 L 334 275.5 L 330 270.5 L 332 270 Q 333.8 265.5 328.5 267 L 325 264.5 L 325.5 261 L 327 261.5 Q 323.8 258.2 325 250.5 L 327 239.5 L 325 239 L 325 237 Z " /><path fill="rgb(248,77,39)" stroke="rgb(248,77,39)" stroke-width="1" opacity="0.996078431372549" d="M 361.5 237 L 364 237.5 L 361.5 238 L 361.5 237 Z " /><path fill="rgb(248,77,39)" stroke="rgb(248,77,39)" stroke-width="1" opacity="0.996078431372549" d="M 205.5 244 L 207 246.5 L 206 246.5 L 205.5 244 Z " /><path fill="rgb(248,77,39)" stroke="rgb(248,77,39)" stroke-width="1" opacity="0.996078431372549" d="M 215.5 260 L 212.5 264 L 215.5 260 Z " /><path fill="rgb(248,77,39)" stroke="rgb(248,77,39)" stroke-width="1" opacity="0.996078431372549" d="M 361 262 L 390.5 262 L 394 263 L 394 279.5 Q 397.5 278.5 396 285.5 L 395 286.5 L 394.5 300 L 386.5 295 L 384.5 296 L 382.5 296 L 377.5 295 Q 374.9 301.9 369.5 306 L 356.5 316 L 348 317 L 346.5 322 L 344.5 321 L 342.5 322 L 329.5 317 L 311.5 300 L 310 300 Q 311.1 297.3 308.5 298 L 307 295 L 304 293.5 L 292.5 281 L 287 276.5 L 297.5 264 L 303 268.5 Q 302.3 270.8 304.5 270 L 308 275 L 315 280.5 Q 314.3 282.8 316.5 282 L 323.5 290 L 328 293.5 L 330.5 297 L 333.5 299 L 336.5 303 Q 338.5 305.8 343 305 Q 341.8 308.7 347 307 L 347.5 305 L 358.5 307 L 360 305.5 L 360 284.5 L 359 283.5 L 359 272.5 L 360 272.5 L 360.5 280 L 361 262 Z " /><path fill="rgb(248,77,39)" stroke="rgb(248,77,39)" stroke-width="1" opacity="0.996078431372549" d="M 259.5 269 L 258.5 271 L 259.5 269 Z " /><path fill="rgb(248,77,39)" stroke="rgb(248,77,39)" stroke-width="1" opacity="0.996078431372549" d="M 202.5 273 L 198.5 278 L 202.5 273 Z " /><path fill="rgb(248,77,39)" stroke="rgb(248,77,39)" stroke-width="1" opacity="0.996078431372549" d="M 395.5 303 L 396 304.5 L 394.5 307 L 393 304.5 L 395 304.5 L 395.5 303 Z " /><path fill="rgb(248,77,39)" stroke="rgb(248,77,39)" stroke-width="1" opacity="0.996078431372549" d="M 288.5 304 L 290.5 307 L 288.5 304 Z " /><path fill="rgb(248,77,39)" stroke="rgb(248,77,39)" stroke-width="1" opacity="0.996078431372549" d="M 292.5 308 L 294.5 311 L 292.5 308 Z " /><path fill="rgb(248,77,39)" stroke="rgb(248,77,39)" stroke-width="1" opacity="0.996078431372549" d="M 301.5 317 L 302.5 319 L 301.5 317 Z " /><path fill="rgb(248,77,39)" stroke="rgb(248,77,39)" stroke-width="1" opacity="0.996078431372549" d="M 189.5 337 L 188.5 339 L 189.5 337 Z " /><path fill="rgb(248,77,39)" stroke="rgb(248,77,39)" stroke-width="1" opacity="0.996078431372549" d="M 216.5 341 L 219.5 343 L 242.5 350 L 258.5 351 L 259.5 350 L 272.5 349 L 275.5 347 L 277.5 348 L 281 347 L 281.5 345 L 283.5 346 L 287.5 343 L 290 344 L 290.5 342 L 292.5 342 L 296.5 341 L 310.5 358 Q 312.8 357.3 312 359.5 L 315 361.5 L 313.5 365 L 310 366.5 L 310.5 368 L 308.5 367 L 308.5 369 L 306.5 369 Q 304.3 368.3 305 370.5 L 303 370.5 L 302.5 372 L 300.5 372 L 293 374.5 L 293.5 376 L 291 375 L 290.5 377 L 288.5 376 Q 287 379.5 285.5 377 Q 283.3 376.3 284 378.5 L 282.5 378 L 276.5 381 L 273.5 380 L 270.5 382 L 267.5 381 L 259.5 383 Q 258.3 380.8 253.5 382 L 251.5 383 L 243.5 381 L 241.5 381 L 236.5 380 L 234.5 380 L 231.5 379 L 230.5 380 L 226.5 378 L 224.5 377 Q 223 379.5 221.5 376 L 215.5 375 L 211.5 372 Q 210 374.5 208.5 371 L 204.5 369 L 202.5 369 L 197 365.5 L 215.5 343 L 217 342.5 L 216.5 341 Z " /><path fill="rgb(248,77,39)" stroke="rgb(248,77,39)" stroke-width="1" opacity="0.996078431372549" d="M 305.5 344 L 312.5 352 L 305.5 344 Z " /><path fill="rgb(248,77,39)" stroke="rgb(248,77,39)" stroke-width="1" opacity="0.996078431372549" d="M 314.5 353 L 315.5 355 L 314.5 353 Z " /><path fill="rgb(248,77,39)" stroke="rgb(248,77,39)" stroke-width="1" opacity="0.996078431372549" d="M 313.5 356 L 316 357.5 L 313.5 359 L 313.5 356 Z " /><path fill="rgb(248,77,39)" stroke="rgb(248,77,39)" stroke-width="1" opacity="0.996078431372549" d="M 318.5 360 L 321 360.5 Q 321.8 362.8 319.5 362 L 318 362.5 L 318.5 360 Z " /><path fill="rgb(11,27,40)" stroke="rgb(11,27,40)" stroke-width="1" opacity="0.9882352941176471" d="M 189.5 134 L 198 142.5 L 198 144 L 199.5 144 L 209 153.5 L 211.5 157 L 215.5 156 L 218.5 153 L 228.5 148 L 241.5 144 L 263.5 143 L 280.5 147 L 291.5 152 L 298.5 157 L 313.5 141 L 316 139.5 Q 315.3 137.3 317.5 138 L 321.5 135 L 324 137.5 L 326 146.5 L 326 148.5 L 303 172.5 L 303 174 L 301.5 174 L 280 195.5 Q 280.8 197.8 278.5 197 L 216.5 260 L 198 277.5 L 193.5 283 Q 191.3 282.3 192 284.5 L 178 297.5 L 172.5 304 L 153 306 L 153 260 L 116.5 260 L 115 260.5 L 116 258.5 L 114 251.5 L 114 244.5 L 115 243.5 L 115 237 L 153 237 L 153 188.5 L 153.5 188 L 162.5 188 L 172.5 190 L 197 214.5 L 200.5 219 L 218.5 236 L 243 210.5 L 243 207 L 240 205.5 L 233.5 198 L 214 179.5 Q 214.8 177.3 212.5 178 L 192.5 157 L 183.5 149 L 181 149 L 180 145.5 L 189.5 134 Z M 255 159 L 254 160 L 241 161 L 226 167 L 225 170 L 250 192 L 254 198 L 257 198 L 268 188 Q 278 180 284 169 L 280 165 L 270 161 L 255 159 Z M 169 207 L 168 276 L 167 281 L 167 283 L 169 286 L 174 282 L 190 265 Q 189 261 193 262 L 208 246 L 201 240 L 199 238 L 193 232 L 189 228 L 180 218 L 178 218 L 178 217 L 169 207 Z " /><path fill="rgb(11,27,40)" stroke="rgb(11,27,40)" stroke-width="1" opacity="0.9882352941176471" d="M 355.5 187 L 359 187.5 L 359 238 L 374.5 238 L 375.5 237 L 393.5 237 L 396 238 L 396 261 L 387.5 261 L 386.5 260 L 360.5 260 L 359 261.5 L 359 304.5 L 357.5 306 L 339.5 304 L 322 287.5 L 320.5 285 L 318 283.5 Q 318.8 281.3 316.5 282 L 297.5 262 L 294 262.5 Q 295.5 258.1 292.5 259 L 285 264 L 276.5 275 Q 274.3 274.3 275 276.5 L 267 283.5 L 270 288 Q 272.7 286.9 272 289.5 L 281 297.5 L 285.5 303 L 326.5 343 L 331.5 344 L 333.5 343 L 334.5 344 L 353.5 344 L 355.5 343 L 357.5 344 L 364 340 L 366.5 336 L 390 313.5 Q 389.3 311.3 391.5 312 L 396 308.5 L 396 325.5 L 394 329.5 L 376.5 347 L 373.5 349 L 359.5 362 L 350.5 365 L 340.5 365 L 317.5 382 L 302.5 390 L 272.5 399 L 259.5 400 L 258.5 401 L 249.5 401 L 248.5 400 L 235.5 399 L 216.5 394 L 190.5 382 L 181 375 Q 182.1 372.3 179.5 373 L 173.5 366 L 171.5 365 L 159.5 365 L 151.5 363 L 145.5 359 L 115 328.5 L 113 324 Q 116 325.3 115 321.5 L 115 319.5 L 114 309.5 L 115.5 307 L 127.5 320 L 130.5 322 L 151.5 344 L 176.5 344 L 185.5 342 L 254.5 274 L 256 274 Q 254.9 271.3 257.5 272 L 269.5 259 L 282 247.5 L 288.5 240 L 303 226.5 L 339.5 189 Q 345 186.5 354.5 188 L 355.5 187 Z M 343 208 L 341 209 L 305 247 L 313 256 Q 315 255 314 258 L 318 260 L 323 267 L 344 287 L 344 241 L 343 240 L 344 221 L 344 219 L 344 210 L 343 208 Z M 254 295 L 254 297 L 235 314 L 225 326 L 237 332 L 246 334 L 258 334 L 259 335 L 277 331 L 285 326 L 281 320 L 267 306 Q 264 307 265 305 L 262 302 L 258 298 L 254 295 Z M 212 337 L 192 357 L 190 361 L 200 368 L 217 376 L 239 382 L 248 382 L 249 383 L 266 383 L 282 380 L 300 374 L 320 363 L 322 360 L 311 350 Q 312 347 310 348 L 300 337 L 292 342 L 281 346 L 264 350 L 241 349 L 228 344 L 225 344 L 212 337 Z " /><path fill="rgb(11,27,40)" stroke="rgb(11,27,40)" stroke-width="1" opacity="0.9882352941176471" d="M 253.5 239 Q 260 238 262 241.5 L 263 248.5 L 258.5 254 Q 252.4 254.8 250 253 Q 247.4 250.7 248 244.5 L 251.5 240 L 253.5 239 Z " /></svg>